<mxfile type="github" version="14.2.7" host="app.diagrams.net" modified="2021-01-29T12:21:58.365Z" agent="5.0 (Windows NT 10.0; Win64; x64) AppleWebKit/537.36 (KHTML, like Gecko) Chrome/70.0.3538.102 Safari/537.36 Edge/18.18363" etag="Uudn_P5sOUdUPFN7UXaj">
  <diagram id="BLxNn-_saQvP-fir4wIb" name="第 1 页">
    <mxGraphModel grid="1" shadow="0" math="0" pageHeight="1169" pageWidth="827" pageScale="1" page="1" fold="1" arrows="1" connect="1" tooltips="1" guides="1" gridSize="10" dy="466" dx="782">
      <root>
        <mxCell id="0" />
        <mxCell id="1" parent="0" />
        <mxCell id="RtfoVJhTWoBrFgMv3IwM-1" value="系统（体系、质点系）" parent="1" style="ellipse;whiteSpace=wrap;html=1;aspect=fixed;rotation=0;" vertex="1">
          <mxGeometry as="geometry" y="200" x="390" width="80" height="80" />
        </mxCell>
        <mxCell id="RtfoVJhTWoBrFgMv3IwM-2" value="组成部分" parent="1" style="rounded=0;orthogonalLoop=1;jettySize=auto;html=1;exitX=1;exitY=0.5;exitDx=0;exitDy=0;entryX=0;entryY=0.5;entryDx=0;entryDy=0;" edge="1" source="RtfoVJhTWoBrFgMv3IwM-3" target="RtfoVJhTWoBrFgMv3IwM-1">
          <mxGeometry as="geometry" relative="1" />
        </mxCell>
        <mxCell id="RtfoVJhTWoBrFgMv3IwM-3" value="粒子（质点）" parent="1" style="ellipse;whiteSpace=wrap;html=1;aspect=fixed;rotation=0;" vertex="1">
          <mxGeometry as="geometry" y="200" x="190" width="80" height="80" />
        </mxCell>
      </root>
    </mxGraphModel>
  </diagram>
</mxfile>
